<svg xmlns="http://www.w3.org/2000/svg" version="1.1" xmlns:xlink="http://www.w3.org/1999/xlink" xmlns:svgjs="http://svgjs.dev/svgjs" width="1000" height="1000" viewBox="0 0 1000 1000"><rect width="1000" height="1000" fill="#28353b"></rect><g transform="matrix(0.7,0,0,0.7,149.57575757575756,282.1265587044535)"><svg viewBox="0 0 396 247" data-background-color="#28353b" preserveAspectRatio="xMidYMid meet" height="623" width="1000" xmlns="http://www.w3.org/2000/svg" xmlns:xlink="http://www.w3.org/1999/xlink"><g id="tight-bounds" transform="matrix(1,0,0,1,0.2400000000000091,-0.09999999999999432)"><svg viewBox="0 0 395.52 247.2" height="247.2" width="395.52"><g><svg></svg></g><g><svg viewBox="0 0 395.52 247.2" height="247.2" width="395.52"><g transform="matrix(1,0,0,1,133.90298118668596,37.08)"><svg viewBox="0 0 127.71403762662806 173.04" height="173.04" width="127.71403762662806"><g><svg viewBox="0 0 127.71403762662806 173.04" height="173.04" width="127.71403762662806"><g><svg viewBox="0 0 127.71403762662806 173.04" height="173.04" width="127.71403762662806"><g><svg viewBox="0 0 127.71403762662806 173.04" height="173.04" width="127.71403762662806"><g><svg viewBox="0 0 127.71403762662806 173.04" height="173.04" width="127.71403762662806"><g><svg viewBox="0 0 127.71403762662806 173.04" height="173.04" width="127.71403762662806"><g transform="matrix(1,0,0,1,0,0)"><svg width="127.71403762662806" viewBox="4.050000190734863 -34.54999923706055 25.5 34.54999923706055" height="173.04" data-palette-color="#ffffff"><path d="M29.55-34.55L29.55 0 21 0 9.15-27.95Q9.6-24.25 9.83-21.25 10.05-18.25 10.05-14.1L10.05-14.1 10.05 0 4.05 0 4.05-34.55 12.4-34.55 24.45-6.55Q24.15-8.55 23.85-11.83 23.55-15.1 23.55-18.35L23.55-18.35 23.55-34.55 29.55-34.55Z" opacity="1" transform="matrix(1,0,0,1,0,0)" fill="#ffffff" class="undefined-text-0" data-fill-palette-color="primary" id="text-0"></path></svg></g></svg></g></svg></g></svg></g></svg></g></svg></g></svg></g><g mask="url(#63b22797-d9ca-445b-a1d6-fd986a962024)"><g transform="matrix(3.1844155844155844, 0, 0, 3.1844155844155844, 58.60104867910408, 1)"><svg xmlns="http://www.w3.org/2000/svg" xmlns:xlink="http://www.w3.org/1999/xlink" version="1.1" x="0" y="0" viewBox="6.300000190734863 11.5 87.39999389648438 77" style="enable-background:new 0 0 100 100;" xml:space="preserve" height="77" width="87.39999389648438" class="icon-none" data-fill-palette-color="accent" id="none"><path d="M72.3 12.3L72.3 12.3 72.3 12.3l-0.4-0.8H28.2L6.3 50l21.8 38.5h43.7L93.7 50 72.3 12.3zM33.3 25.3L9.9 47.7l18.6-32.8L33.3 25.3zM70.7 14.8l6.4 35.7L36.9 25.8 70.7 14.8zM35.5 27.3l41 25.2-41 23.3V27.3zM77 54.5l-7.2 30.8-32.6-8.1L77 54.5zM33.5 75L9.9 50.5l23.6-22.7V75zM33.2 77.6l-4.6 7.7L11.5 55.1 33.2 77.6zM35 78.6l31.4 7.9H30.2L35 78.6zM79.3 53.3l11.6-2.5L72.1 84 79.3 53.3zM90.7 48.9l-11.4 2.5-5.9-33.1L90.7 48.9zM35 24.3l-5-10.8h38.2L35 24.3z" fill="#fe6152" data-fill-palette-color="accent"></path></svg></g></g></svg></g><defs><mask id="7973bda3-25c0-4c7d-8105-2f8012839893"><rect width="640" height="400" fill="white"></rect><rect width="151.15552941176472" height="254.74118208" fill="black" x="244.42223529411763" y="72.62940896" id="transform-me" transform="matrix(1,0,0,1,-122.24000000000001,-76.4)"></rect></mask><mask id="8725d71f-1ccb-4bf3-a8d8-34494f10142b"><rect width="640" height="400" fill="white"></rect><rect width="151.15552941176472" height="254.74118208" fill="black" x="244.42223529411763" y="72.62940896" id="transform-me" transform="matrix(1,0,0,1,-122.24000000000001,-76.4)"></rect></mask><mask id="9c7134e7-9b62-4463-ad18-d96ede0d3166"><rect width="640" height="400" fill="white"></rect><rect width="151.15552941176472" height="254.74118208" fill="black" x="244.42223529411763" y="72.62940896" id="transform-me" transform="matrix(1,0,0,1,-122.24000000000001,-76.4)"></rect></mask><mask id="bcd1180b-ea8b-4633-b307-3e90e99df103"><rect width="640" height="400" fill="white"></rect><rect width="151.15552941176472" height="254.74118208" fill="black" x="244.42223529411763" y="72.62940896" id="transform-me" transform="matrix(1,0,0,1,-122.24000000000001,-76.4)"></rect></mask><mask id="59df1d91-2a25-42a6-b63d-10a0b7293c7d"><rect width="640" height="400" fill="white"></rect><rect width="151.15552941176472" height="254.74118208" fill="black" x="244.42223529411763" y="72.62940896" id="transform-me" transform="matrix(1,0,0,1,-122.24000000000001,-76.4)"></rect></mask><mask id="f8e29795-3b64-404f-a3e0-0068ea3f58a7"><rect width="640" height="400" fill="white"></rect><rect width="151.15552941176472" height="254.74118208" fill="black" x="244.42223529411763" y="72.62940896" id="transform-me" transform="matrix(1,0,0,1,-122.24000000000001,-76.4)"></rect></mask><mask id="c7606554-33ac-40cc-a592-9222b2a67738"><rect width="640" height="400" fill="white"></rect><rect width="151.15552941176472" height="254.74118208" fill="black" x="244.42223529411763" y="72.62940896" id="transform-me" transform="matrix(1,0,0,1,-122.24000000000001,-76.4)"></rect></mask><mask id="e4ace068-31ba-41a2-b977-7b81924d1137"><rect width="640" height="400" fill="white"></rect><rect width="75.57776470588236" height="127.37059104" fill="black" x="282.2111176470588" y="136.31470448" id="transform-me" transform="matrix(1,0,0,1,-122.24000000000001,-76.4)"></rect></mask><mask id="fb3f1c17-3171-4c3e-9c22-ef420703ca32"><rect width="640" height="400" fill="white"></rect><rect width="100.77035294117647" height="169.82745472" fill="black" x="269.61482352941175" y="115.08627264" id="transform-me" transform="matrix(1,0,0,1,-122.24000000000001,-76.4)"></rect></mask><mask id="50ed3b41-980a-4120-8544-a55fd22bf07a"><rect width="640" height="400" fill="white"></rect><rect width="151.15552941176472" height="254.74118208" fill="black" x="244.42223529411763" y="72.62940896" id="transform-me" transform="matrix(1,0,0,1,-122.24000000000001,-76.4)"></rect></mask><mask id="d44f4ad8-b73b-404e-a65f-31ae48d4a3ad"><rect width="640" height="400" fill="white"></rect><rect width="201.54070588235294" height="339.65490944" fill="black" x="219.22964705882353" y="30.17254528000001" id="transform-me" transform="matrix(1,0,0,1,-122.24000000000001,-76.4)"></rect></mask><mask id="74c3ab76-4cc7-47fa-aef4-66fda1a86341"><rect width="640" height="400" fill="white"></rect><rect width="215.9364705882353" height="363.9159743999999" fill="black" x="212.03176470588235" y="18.042012800000037" id="transform-me" transform="matrix(1,0,0,1,-122.24000000000001,-76.4)"></rect></mask><mask id="61a455b5-ef3f-432a-96a0-a4d2199da5fc"><rect width="640" height="400" fill="white"></rect><rect width="201.54070588235294" height="339.65490944" fill="black" x="219.22964705882353" y="30.17254528000001" id="transform-me" transform="matrix(1,0,0,1,-122.24000000000001,-76.4)"></rect></mask><mask id="f2f47301-0d9f-4ba8-b324-a896dcc1c000"><rect width="640" height="400" fill="white"></rect><rect width="151.15552941176472" height="254.74118208" fill="black" x="244.42223529411763" y="72.62940896" id="transform-me" transform="matrix(1,0,0,1,-122.24000000000001,-76.4)"></rect></mask><mask id="63b22797-d9ca-445b-a1d6-fd986a962024"><rect width="640" height="400" fill="white"></rect><rect width="140.48544138929088" height="254.74118208" fill="black" x="249.75727930535456" y="72.62940896" id="transform-me" transform="matrix(1,0,0,1,-122.24000000000001,-76.4)"></rect></mask></defs></svg><rect width="395.52" height="247.2" fill="none" stroke="none" visibility="hidden"></rect></g></svg></g></svg>